<svg width="74" height="74" viewBox="0 0 74 74" fill="none" xmlns="http://www.w3.org/2000/svg">
<circle cx="37" cy="37" r="36" fill="#FFD655" stroke="#E2236F" stroke-width="2"/>
<path d="M54.5755 29.6541C53.2286 29.6532 51.9099 29.9775 50.7771 30.5884V21.9218C50.7778 20.8474 50.4291 19.7931 49.7684 18.8725C49.1077 17.9518 48.1601 17.1995 47.0275 16.6965C45.8949 16.1934 44.6201 15.9588 43.3402 16.0176C42.0604 16.0765 40.8239 16.4267 39.7638 17.0306C39.395 15.6046 38.4103 14.3433 36.9989 13.4892C35.5876 12.6351 33.8493 12.2486 32.1185 12.404C30.3877 12.5594 28.7865 13.2458 27.623 14.3311C26.4595 15.4164 25.8159 16.8239 25.8158 18.283V20.5818C24.7504 20.0094 23.5208 19.6879 22.256 19.6512C20.9912 19.6145 19.738 19.8638 18.6278 20.3731C17.5177 20.8824 16.5916 21.6328 15.9468 22.5456C15.3019 23.4583 14.9622 24.4997 14.9631 25.5605V44.664C14.9631 49.8511 17.4215 54.8258 21.7973 58.4937C26.1732 62.1616 32.1081 64.2222 38.2965 64.2222C44.4849 64.2222 50.4198 62.1616 54.7956 58.4937C59.1715 54.8258 61.6298 49.8511 61.6298 44.664V35.5671C61.6276 33.9994 60.8837 32.4965 59.5613 31.388C58.2388 30.2795 56.4458 29.6559 54.5755 29.6541V29.6541ZM58.374 44.664C58.374 49.1273 56.2587 53.4079 52.4934 56.564C48.7281 59.7201 43.6214 61.4932 38.2965 61.4932C32.9716 61.4932 27.8648 59.7201 24.0995 56.564C20.3343 53.4079 18.219 49.1273 18.219 44.664V25.5605C18.219 24.7161 18.6191 23.9063 19.3315 23.3092C20.0438 22.7121 21.01 22.3766 22.0174 22.3766C23.0248 22.3766 23.991 22.7121 24.7033 23.3092C25.4157 23.9063 25.8158 24.7161 25.8158 25.5605V35.5671C25.8158 35.929 25.9874 36.2761 26.2927 36.5319C26.5979 36.7878 27.012 36.9316 27.4438 36.9316C27.8755 36.9316 28.2896 36.7878 28.5949 36.5319C28.9002 36.2761 29.0717 35.929 29.0717 35.5671V18.283C29.0717 17.4386 29.4719 16.6288 30.1842 16.0317C30.8965 15.4346 31.8627 15.0991 32.8701 15.0991C33.8775 15.0991 34.8437 15.4346 35.556 16.0317C36.2684 16.6288 36.6686 17.4386 36.6686 18.283V33.7477C36.6686 34.1096 36.8401 34.4567 37.1454 34.7126C37.4507 34.9685 37.8647 35.1122 38.2965 35.1122C38.7282 35.1122 39.1423 34.9685 39.4476 34.7126C39.7529 34.4567 39.9244 34.1096 39.9244 33.7477V21.9218C39.9244 21.0774 40.3246 20.2675 41.0369 19.6704C41.7493 19.0733 42.7154 18.7379 43.7228 18.7379C44.7302 18.7379 45.6964 19.0733 46.4087 19.6704C47.1211 20.2675 47.5213 21.0774 47.5213 21.9218V38.8397C44.5205 39.1739 41.7664 40.4096 39.7704 42.3173C37.7745 44.225 36.6723 46.675 36.6686 49.2124C36.6686 49.5743 36.8401 49.9214 37.1454 50.1773C37.4507 50.4332 37.8647 50.5769 38.2965 50.5769C38.7282 50.5769 39.1423 50.4332 39.4476 50.1773C39.7529 49.9214 39.9244 49.5743 39.9244 49.2124C39.9271 47.1623 40.8999 45.1969 42.6293 43.7473C44.3587 42.2977 46.7034 41.4823 49.1492 41.48C49.5809 41.48 49.995 41.3363 50.3003 41.0804C50.6056 40.8245 50.7771 40.4774 50.7771 40.1155V35.5671C50.7771 34.7227 51.1773 33.9128 51.8896 33.3157C52.602 32.7186 53.5681 32.3832 54.5755 32.3832C55.5829 32.3832 56.5491 32.7186 57.2614 33.3157C57.9738 33.9128 58.374 34.7227 58.374 35.5671V44.664Z" fill="black"/>
</svg>
